<?xml version="1.0" encoding="UTF-8"?>
<svg id="_图层_2" data-name="图层_2" xmlns="http://www.w3.org/2000/svg" xmlns:xlink="http://www.w3.org/1999/xlink" viewBox="0 0 265.17 235">
  <defs>
    <style>
      .cls-1 {
        stroke: #fff;
        stroke-miterlimit: 10;
      }

      .cls-1, .cls-2, .cls-3 {
        fill: #fff;
      }

      .cls-4 {
        fill: url(#_未命名的渐变_70);
      }

      .cls-3 {
        font-family: Now-Black, Now;
        font-size: 14px;
        font-weight: 800;
      }
    </style>
    <linearGradient id="_未命名的渐变_70" data-name="未命名的渐变 70" x1="132.7" y1="195.88" x2="132.7" y2="40" gradientUnits="userSpaceOnUse">
      <stop offset="0" stop-color="#fbc44a"/>
      <stop offset="1" stop-color="#f17724"/>
    </linearGradient>
  </defs>
  <g id="_图层_1-2" data-name="图层_1">
    <g>
      <g>
        <path class="cls-4" d="M95.36,40h74.68c4.74,0,9.12,2.53,11.49,6.63l37.34,64.68c2.37,4.1,2.37,9.16,0,13.27l-37.34,64.68c-2.37,4.1-6.75,6.63-11.49,6.63h-74.68c-4.74,0-9.12-2.53-11.49-6.63l-37.34-64.68c-2.37-4.1-2.37-9.16,0-13.27l37.34-64.68c2.37-4.1,6.75-6.63,11.49-6.63Z"/>
        <path d="M206.2,10c-3.57-6.19-10.18-10-17.32-10h-112.58c-7.15,0-13.75,3.81-17.32,10L2.68,107.5c-3.57,6.19-3.57,13.81,0,20l56.29,97.5c3.57,6.19,10.18,10,17.32,10h112.58c7.15,0,13.75-3.81,17.32-10l56.29-97.5c3.57-6.19,3.57-13.81,0-20L206.2,10ZM95.24,40.06h74.68c4.74,0,9.12,2.53,11.49,6.63l37.34,64.68c2.37,4.1,2.37,9.16,0,13.27l-37.34,64.68c-2.37,4.1-6.75,6.63-11.49,6.63h-74.68c-4.74,0-9.12-2.53-11.49-6.63l-37.34-64.68c-2.37-4.1-2.37-9.16,0-13.27l37.34-64.68c2.37-4.1,6.75-6.63,11.49-6.63Z"/>
        <g>
          <path class="cls-2" d="M38.85,106.74c9.78-16.94,28.16-48.78,37.95-65.74.45-.78.45-1.73,0-2.51-1.85-3.23-6.83-11.93-9.72-16.98-.96-1.68-3.37-1.69-4.35-.02-12.99,22.15-34.93,60.5-47.81,82.73-.97,1.68.23,3.78,2.18,3.78,5.83,0,15.84,0,19.57,0,.9,0,1.73-.48,2.18-1.26Z"/>
          <path class="cls-1" d="M93.06,29.93c.45.78,1.28,1.26,2.17,1.26h74.7c.9,0,1.73-.48,2.17-1.26l9.85-17.22c.95-1.67-.25-3.75-2.17-3.75h-94.41c-1.92,0-3.13,2.08-2.17,3.75l9.85,17.22Z"/>
          <path class="cls-2" d="M198.09,21.49l-9.73,17c-.45.78-.44,1.73,0,2.51l37.95,65.74c.45.78,1.28,1.26,2.18,1.26h19.56c1.94,0,3.15-2.1,2.18-3.78-8.49-14.7-39.28-68.02-47.79-82.74-.97-1.68-3.4-1.67-4.37.01Z"/>
          <path class="cls-2" d="M67.05,213.56l9.48-16.57c.44-.77.44-1.71,0-2.48l-19.12-33.11-19.14-33.16c-.44-.77-1.27-1.24-2.15-1.24h-19.06c-1.92,0-3.11,2.07-2.15,3.73l23.69,41.04s17.86,30.92,24.15,41.8c.96,1.66,3.36,1.65,4.31-.01Z"/>
          <path class="cls-2" d="M226.89,128.26c-9.86,17.09-28.38,49.15-38.24,66.23-.45.78-.45,1.73,0,2.51,1.81,3.16,6.61,11.55,9.44,16.5.97,1.69,3.39,1.69,4.37,0,12.89-22.29,34.97-60.52,47.79-82.74.97-1.68-.24-3.78-2.18-3.78-5.69,0-15.34,0-18.99,0-.9,0-1.73.48-2.18,1.26Z"/>
        </g>
      </g>
      <text class="cls-3" transform="translate(75.32 217.35)"><tspan x="0" y="0" xml:space="preserve"> - DEAN’S LIST - </tspan></text>
      <g>
        <path d="M126.05,49.17l5.15,2.73c1.18.62,2.59.62,3.77,0l5.15-2.73c1.06-.56,2.35-.35,3.18.5l4.05,4.18c.93.96,2.27,1.39,3.58,1.16l5.74-1c1.18-.21,2.35.39,2.87,1.46l2.56,5.23c.59,1.2,1.73,2.03,3.05,2.22l5.77.82c1.18.17,2.11,1.1,2.28,2.28l.82,5.77c.19,1.32,1.02,2.46,2.22,3.05l5.23,2.56c1.07.52,1.67,1.7,1.46,2.87l-1,5.74c-.23,1.31.21,2.66,1.16,3.58l4.18,4.05c.86.83,1.06,2.13.5,3.18l-2.73,5.15c-.62,1.18-.62,2.59,0,3.77l2.73,5.15c.56,1.06.35,2.35-.5,3.18l-4.18,4.05c-.96.93-1.39,2.27-1.16,3.58l1,5.74c.21,1.18-.39,2.35-1.46,2.87l-5.23,2.56c-1.2.59-2.03,1.73-2.22,3.05l-.82,5.77c-.17,1.18-1.1,2.11-2.28,2.28l-5.77.82c-1.32.19-2.46,1.02-3.05,2.22l-2.56,5.23c-.52,1.07-1.7,1.67-2.87,1.46l-5.74-1c-1.31-.23-2.66.21-3.58,1.16l-4.05,4.18c-.83.86-2.13,1.06-3.18.5l-5.15-2.73c-1.18-.62-2.59-.62-3.77,0l-5.15,2.73c-1.06.56-2.35.35-3.18-.5l-4.05-4.18c-.93-.96-2.27-1.39-3.58-1.16l-5.74,1c-1.18.21-2.35-.39-2.87-1.46l-2.56-5.23c-.59-1.2-1.73-2.03-3.05-2.22l-5.77-.82c-1.18-.17-2.11-1.1-2.28-2.28l-.82-5.77c-.19-1.32-1.02-2.46-2.22-3.05l-5.23-2.56c-1.07-.52-1.67-1.7-1.46-2.87l1-5.74c.23-1.31-.21-2.66-1.16-3.58l-4.18-4.05c-.86-.83-1.06-2.13-.5-3.18l2.73-5.15c.62-1.18.62-2.59,0-3.77l-2.73-5.15c-.56-1.06-.35-2.35.5-3.18l4.18-4.05c.96-.93,1.39-2.27,1.16-3.58l-1-5.74c-.21-1.18.39-2.35,1.46-2.87l5.23-2.56c1.2-.59,2.03-1.73,2.22-3.05l.82-5.77c.17-1.18,1.1-2.11,2.28-2.28l5.77-.82c1.32-.19,2.46-1.02,3.05-2.22l2.56-5.23c.52-1.07,1.7-1.67,2.87-1.46l5.74,1c1.31.23,2.66-.21,3.58-1.16l4.05-4.18c.83-.86,2.13-1.06,3.18-.5ZM133.08,58.27c-25.18,0-45.6,20.41-45.6,45.6s20.41,45.6,45.6,45.6,45.6-20.41,45.6-45.6-20.41-45.6-45.6-45.6Z"/>
        <g>
          <path d="M104.07,147.01l2.56,5.23c.52,1.07,1.7,1.67,2.87,1.46l5.74-1c1.31-.23,2.66.21,3.58,1.16l4.05,4.18c.83.86,2.13,1.06,3.18.5l4.23-2.24.85-2.14c.2-.51-.1-1.12-.68-1.35l-12.65-5.04-12.65-5.04c-.58-.23-1.22,0-1.42.51l-.91,2.28c.52.38.95.88,1.24,1.48Z"/>
          <path d="M125.54,162.53c-1.13.6-2.52.38-3.42-.54l-4.35-4.49c-1-1.03-2.44-1.5-3.85-1.25l-6.15,1.08c-1.26.22-2.52-.42-3.08-1.57l-2.75-5.61c-.16-.33-.37-.64-.61-.91l-5.15,12.91-7.07,17.73c-.32.81.59,1.66,1.49,1.39l14.84-4.55c.53-.16,1.14.08,1.42.56l7.63,13.51c.46.81,1.71.82,2.03.01l7.07-17.73,4.81-12.06-2.87,1.52Z"/>
        </g>
        <g>
          <path d="M162.13,147.01l-2.56,5.23c-.52,1.07-1.7,1.67-2.87,1.46l-5.74-1c-1.31-.23-2.66.21-3.58,1.16l-4.05,4.18c-.83.86-2.13,1.06-3.18.5l-4.23-2.24-.85-2.14c-.2-.51.1-1.12.68-1.35l12.65-5.04,12.65-5.04c.58-.23,1.22,0,1.42.51l.91,2.28c-.52.38-.95.88-1.24,1.48Z"/>
          <path d="M140.65,162.53c1.13.6,2.52.38,3.42-.54l4.35-4.49c1-1.03,2.44-1.5,3.85-1.25l6.15,1.08c1.26.22,2.52-.42,3.08-1.57l2.75-5.61c.16-.33.37-.64.61-.91l5.15,12.91,7.07,17.73c.32.81-.59,1.66-1.49,1.39l-14.84-4.55c-.53-.16-1.14.08-1.42.56l-7.63,13.51c-.46.81-1.71.82-2.03.01l-7.07-17.73-4.81-12.06,2.87,1.52Z"/>
        </g>
      </g>
      <g>
        <path d="M133.08,62.29c-22.96,0-41.57,18.61-41.57,41.57s18.61,41.57,41.57,41.57,41.57-18.61,41.57-41.57-18.61-41.57-41.57-41.57ZM125.2,118.07l-1.73-5.51h-11.03l-1.73,5.51h-8.66l11.39-31.5h8.98l11.39,31.5h-8.61ZM152.44,107.94v10.13h-5.78v-10.13h-10.13v-5.78h10.13v-10.13h5.78v10.13h10.13v5.78h-10.13Z"/>
        <polygon points="114.49 106.05 121.47 106.05 117.95 94.92 114.49 106.05"/>
      </g>
    </g>
  </g>
</svg>