<?xml version="1.0" encoding="UTF-8"?>
<svg id="_图层_2" data-name="图层_2" xmlns="http://www.w3.org/2000/svg" xmlns:xlink="http://www.w3.org/1999/xlink" viewBox="0 0 265.17 235">
  <defs>
    <style>
      .cls-1 {
        stroke: #fff;
        stroke-miterlimit: 10;
      }

      .cls-1, .cls-2, .cls-3 {
        fill: #fff;
      }

      .cls-4 {
        fill: url(#_未命名的渐变_415);
      }

      .cls-5 {
        letter-spacing: -.02em;
      }

      .cls-3 {
        font-family: Now-Black, Now;
        font-size: 14px;
        font-weight: 800;
      }
    </style>
    <linearGradient id="_未命名的渐变_415" data-name="未命名的渐变 415" x1="132.7" y1="195.88" x2="132.7" y2="40" gradientUnits="userSpaceOnUse">
      <stop offset="0" stop-color="#ff6"/>
      <stop offset=".22" stop-color="#eaf451"/>
      <stop offset=".66" stop-color="#b5da1c"/>
      <stop offset=".88" stop-color="#9c0"/>
    </linearGradient>
  </defs>
  <g id="_图层_4" data-name="图层_4">
    <g>
      <g>
        <path class="cls-4" d="M95.36,40h74.68c4.74,0,9.12,2.53,11.49,6.63l37.34,64.68c2.37,4.1,2.37,9.16,0,13.27l-37.34,64.68c-2.37,4.1-6.75,6.63-11.49,6.63h-74.68c-4.74,0-9.12-2.53-11.49-6.63l-37.34-64.68c-2.37-4.1-2.37-9.16,0-13.27l37.34-64.68c2.37-4.1,6.75-6.63,11.49-6.63Z"/>
        <path d="M206.2,10c-3.57-6.19-10.18-10-17.32-10h-112.58c-7.15,0-13.75,3.81-17.32,10L2.68,107.5c-3.57,6.19-3.57,13.81,0,20l56.29,97.5c3.57,6.19,10.18,10,17.32,10h112.58c7.15,0,13.75-3.81,17.32-10l56.29-97.5c3.57-6.19,3.57-13.81,0-20L206.2,10ZM95.24,40.06h74.68c4.74,0,9.12,2.53,11.49,6.63l37.34,64.68c2.37,4.1,2.37,9.16,0,13.27l-37.34,64.68c-2.37,4.1-6.75,6.63-11.49,6.63h-74.68c-4.74,0-9.12-2.53-11.49-6.63l-37.34-64.68c-2.37-4.1-2.37-9.16,0-13.27l37.34-64.68c2.37-4.1,6.75-6.63,11.49-6.63Z"/>
        <g>
          <path class="cls-2" d="M38.85,106.74c9.78-16.94,28.16-48.78,37.95-65.74.45-.78.45-1.73,0-2.51-1.85-3.23-6.83-11.93-9.72-16.98-.96-1.68-3.37-1.69-4.35-.02-12.99,22.15-34.93,60.5-47.81,82.73-.97,1.68.23,3.78,2.18,3.78,5.83,0,15.84,0,19.57,0,.9,0,1.73-.48,2.18-1.26Z"/>
          <path class="cls-1" d="M93.06,29.93c.45.78,1.28,1.26,2.17,1.26h74.7c.9,0,1.73-.48,2.17-1.26l9.85-17.22c.95-1.67-.25-3.75-2.17-3.75h-94.41c-1.92,0-3.13,2.08-2.17,3.75l9.85,17.22Z"/>
          <path class="cls-2" d="M198.09,21.49l-9.73,17c-.45.78-.44,1.73,0,2.51l37.95,65.74c.45.78,1.28,1.26,2.18,1.26h19.56c1.94,0,3.15-2.1,2.18-3.78-8.49-14.7-39.28-68.02-47.79-82.74-.97-1.68-3.4-1.67-4.37.01Z"/>
          <path class="cls-2" d="M67.05,213.56l9.48-16.57c.44-.77.44-1.71,0-2.48l-19.12-33.11-19.14-33.16c-.44-.77-1.27-1.24-2.15-1.24h-19.06c-1.92,0-3.11,2.07-2.15,3.73l23.69,41.04s17.86,30.92,24.15,41.8c.96,1.66,3.36,1.65,4.31-.01Z"/>
          <path class="cls-2" d="M226.89,128.26c-9.86,17.09-28.38,49.15-38.24,66.23-.45.78-.45,1.73,0,2.51,1.81,3.16,6.61,11.55,9.44,16.5.97,1.69,3.39,1.69,4.37,0,12.89-22.29,34.97-60.52,47.79-82.74.97-1.68-.24-3.78-2.18-3.78-5.69,0-15.34,0-18.99,0-.9,0-1.73.48-2.18,1.26Z"/>
        </g>
      </g>
      <g>
        <g>
          <polygon points="104.32 69.12 132.67 85.49 161.03 69.12 132.67 52.75 104.32 69.12"/>
          <polygon points="162.08 70.98 162.08 103.72 133.73 120.09 133.73 87.35 162.08 70.98"/>
          <path d="M103.26,70.98v32.74s28.35,16.37,28.35,16.37v-32.74s-28.35-16.37-28.35-16.37ZM115.92,103.73c-1.47-.86-2.63-2.58-2.63-3.88,0-1.36,1.17-1.75,2.65-.9,1.49.86,2.68,2.61,2.67,3.98-.01,1.3-1.2,1.66-2.68.79ZM118.12,99.06v.89s-4.51-2.57-4.51-2.57v-.67c0-5.48,4.95.14,4.98-3.53.01-1.14-1.24-2.78-2.72-3.6-1.99-1.1-3.18-.3-2.7,1.72l-4.35-2.43c-.58-4.3,2.53-5.85,7.07-3.39,4.07,2.2,7.31,6.8,7.25,10.22-.1,5.41-4.99,1.23-5,3.37Z"/>
        </g>
        <g>
          <polygon points="73.73 122.12 102.08 138.49 130.44 122.12 102.08 105.75 73.73 122.12"/>
          <polygon points="131.49 123.98 131.49 156.72 103.14 173.09 103.14 140.35 131.49 123.98"/>
          <path d="M72.67,123.98v32.74s28.35,16.37,28.35,16.37v-32.74s-28.35-16.37-28.35-16.37ZM85.32,156.73c-1.47-.86-2.63-2.58-2.63-3.88,0-1.36,1.17-1.75,2.65-.9,1.49.86,2.68,2.61,2.67,3.98-.01,1.3-1.2,1.66-2.68.79ZM87.53,152.06v.89s-4.51-2.57-4.51-2.57v-.67c0-5.48,4.95.14,4.98-3.53.01-1.14-1.24-2.78-2.72-3.6-1.99-1.1-3.18-.3-2.7,1.72l-4.35-2.43c-.58-4.3,2.53-5.85,7.07-3.39,4.07,2.2,7.31,6.8,7.25,10.22-.1,5.41-4.99,1.23-5,3.37Z"/>
        </g>
        <g>
          <polygon points="134.73 122.12 163.08 138.49 191.44 122.12 163.08 105.75 134.73 122.12"/>
          <polygon points="192.49 123.98 192.49 156.72 164.14 173.09 164.14 140.35 192.49 123.98"/>
          <path d="M133.67,123.98v32.74s28.35,16.37,28.35,16.37v-32.74s-28.35-16.37-28.35-16.37ZM146.32,156.73c-1.47-.86-2.63-2.58-2.63-3.88,0-1.36,1.17-1.75,2.65-.9,1.49.86,2.68,2.61,2.67,3.98-.01,1.3-1.2,1.66-2.68.79ZM148.53,152.06v.89s-4.51-2.57-4.51-2.57v-.67c0-5.48,4.95.14,4.98-3.53.01-1.14-1.24-2.78-2.72-3.6-1.99-1.1-3.18-.3-2.7,1.72l-4.35-2.43c-.58-4.3,2.53-5.85,7.07-3.39,4.07,2.2,7.31,6.8,7.25,10.22-.1,5.41-4.99,1.23-5,3.37Z"/>
        </g>
      </g>
      <text class="cls-3" transform="translate(85.76 218.05)"><tspan x="0" y="0">- H</tspan><tspan class="cls-5" x="22.68" y="0">O</tspan><tspan x="34.35" y="0">ARDER -</tspan></text>
    </g>
  </g>
</svg>