<?xml version="1.0" encoding="UTF-8"?>
<svg id="_图层_2" data-name="图层_2" xmlns="http://www.w3.org/2000/svg" xmlns:xlink="http://www.w3.org/1999/xlink" viewBox="0 0 265.17 235">
  <defs>
    <style>
      .cls-1 {
        stroke: #fff;
        stroke-miterlimit: 10;
      }

      .cls-1, .cls-2, .cls-3 {
        fill: #fff;
      }

      .cls-4 {
        fill: url(#_未命名的渐变_35);
      }

      .cls-5 {
        fill: #1a1a1a;
      }

      .cls-3 {
        font-family: Now-Black, Now;
        font-size: 14px;
        font-weight: 800;
      }
    </style>
    <linearGradient id="_未命名的渐变_35" data-name="未命名的渐变 35" x1="132.7" y1="195.88" x2="132.7" y2="40" gradientUnits="userSpaceOnUse">
      <stop offset="0" stop-color="#d6ed81"/>
      <stop offset="1" stop-color="#0091e9"/>
    </linearGradient>
  </defs>
  <g id="_图层_1-2" data-name="图层_1">
    <g>
      <g>
        <path class="cls-4" d="M95.36,40h74.68c4.74,0,9.12,2.53,11.49,6.63l37.34,64.68c2.37,4.1,2.37,9.16,0,13.27l-37.34,64.68c-2.37,4.1-6.75,6.63-11.49,6.63h-74.68c-4.74,0-9.12-2.53-11.49-6.63l-37.34-64.68c-2.37-4.1-2.37-9.16,0-13.27l37.34-64.68c2.37-4.1,6.75-6.63,11.49-6.63Z"/>
        <path class="cls-5" d="M206.2,10c-3.57-6.19-10.18-10-17.32-10h-112.58c-7.15,0-13.75,3.81-17.32,10L2.68,107.5c-3.57,6.19-3.57,13.81,0,20l56.29,97.5c3.57,6.19,10.18,10,17.32,10h112.58c7.15,0,13.75-3.81,17.32-10l56.29-97.5c3.57-6.19,3.57-13.81,0-20L206.2,10ZM95.24,40.06h74.68c4.74,0,9.12,2.53,11.49,6.63l37.34,64.68c2.37,4.1,2.37,9.16,0,13.27l-37.34,64.68c-2.37,4.1-6.75,6.63-11.49,6.63h-74.68c-4.74,0-9.12-2.53-11.49-6.63l-37.34-64.68c-2.37-4.1-2.37-9.16,0-13.27l37.34-64.68c2.37-4.1,6.75-6.63,11.49-6.63Z"/>
        <g>
          <path class="cls-2" d="M38.85,106.74c9.78-16.94,28.16-48.78,37.95-65.74.45-.78.45-1.73,0-2.51-1.85-3.23-6.83-11.93-9.72-16.98-.96-1.68-3.37-1.69-4.35-.02-12.99,22.15-34.93,60.5-47.81,82.73-.97,1.68.23,3.78,2.18,3.78,5.83,0,15.84,0,19.57,0,.9,0,1.73-.48,2.18-1.26Z"/>
          <path class="cls-1" d="M93.06,29.93c.45.78,1.28,1.26,2.17,1.26h74.7c.9,0,1.73-.48,2.17-1.26l9.85-17.22c.95-1.67-.25-3.75-2.17-3.75h-94.41c-1.92,0-3.13,2.08-2.17,3.75l9.85,17.22Z"/>
          <path class="cls-2" d="M198.09,21.49l-9.73,17c-.45.78-.44,1.73,0,2.51l37.95,65.74c.45.78,1.28,1.26,2.18,1.26h19.56c1.94,0,3.15-2.1,2.18-3.78-8.49-14.7-39.28-68.02-47.79-82.74-.97-1.68-3.4-1.67-4.37.01Z"/>
          <path class="cls-2" d="M67.05,213.56l9.48-16.57c.44-.77.44-1.71,0-2.48l-19.12-33.11-19.14-33.16c-.44-.77-1.27-1.24-2.15-1.24h-19.06c-1.92,0-3.11,2.07-2.15,3.73l23.69,41.04s17.86,30.92,24.15,41.8c.96,1.66,3.36,1.65,4.31-.01Z"/>
          <path class="cls-2" d="M226.89,128.26c-9.86,17.09-28.38,49.15-38.24,66.23-.45.78-.45,1.73,0,2.51,1.81,3.16,6.61,11.55,9.44,16.5.97,1.69,3.39,1.69,4.37,0,12.89-22.29,34.97-60.52,47.79-82.74.97-1.68-.24-3.78-2.18-3.78-5.69,0-15.34,0-18.99,0-.9,0-1.73.48-2.18,1.26Z"/>
        </g>
      </g>
      <g>
        <g>
          <path d="M86.29,130.32c.53-.36,1.03-.76,1.5-1.18l-5.72-3.28c-.16.35-.31.71-.42,1.08.39,1.71.85,3.41,1.39,5.08,1.15-.43,2.25-1.02,3.25-1.71Z"/>
          <path d="M91.32,141.43v-10.14c-1.85,1.09-3.43,2.58-4.39,4.54-.55,1.11-.83,2.28-.87,3.42.8,1.56,1.69,3.08,2.65,4.55.97-.68,1.84-1.49,2.61-2.38Z"/>
          <path d="M107.74,161.46c.87-1.75,1.36-3.68,1.52-5.58h-6.83c.12,1,.39,1.96.81,2.82,1.45,1,2.96,1.92,4.51,2.77Z"/>
          <path d="M113.18,161.6c.36,1.17.94,2.21,1.69,3.08,1.65.61,3.34,1.13,5.04,1.56.59-2.81.34-5.8-.55-8.36-.26-.74-.56-1.41-.89-2.01h-5.34c-.47,1.89-.52,3.84.05,5.73Z"/>
          <path d="M88.02,89.1c-.91,1.51-1.75,3.06-2.51,4.65,2.64,1.12,5.65,1.47,8.29,1.07,1.57-.2,2.91-.61,3.94-1.24,1.14-.56,1.93-1.38,2.57-2.31-1.26-1.05-2.67-1.94-4.19-2.53-1.5-.57-3.1-.83-4.74-.68-1.23.11-2.36.48-3.36,1.04Z"/>
          <path d="M99.67,78.7c-1.21-.16-2.41-.09-3.54.2-1.25,1.22-2.44,2.51-3.57,3.85,2.27,1.75,5.06,2.8,7.8,3.14.78.09,1.49.09,2.18.06.7-.02,1.35-.12,1.95-.28,1.16-.36,2.23-.82,3.04-1.62-1.9-2.67-4.58-4.81-7.87-5.35Z"/>
          <path d="M176.23,160.18v-7.23c-.31.1-.62.21-.92.33-1.26,1.42-2.59,2.79-3.99,4.08.88.87,1.89,1.61,3.02,2.15.59.28,1.23.5,1.88.67Z"/>
          <path d="M82.21,102.74c-.17.64-.33,1.3-.47,1.95l10.09-5.78c-.45-.1-.9-.19-1.36-.24-1.6-.18-3.3-.07-4.79.52-1.15.42-2.15,1.06-2.98,1.85-.17.57-.34,1.14-.49,1.71Z"/>
          <path d="M188.18,122.78l-2.63,1.51v.4c1.01.58,1.71,1.63,1.84,2.84.03-.15.07-.29.1-.44.28-1.38.51-2.83.69-4.31Z"/>
          <path d="M176.23,145.81c-.34.49-.69.97-1.05,1.45v3.93c0,.32-.03.63-.09.92.39-.45.77-.91,1.14-1.37v-4.94Z"/>
          <path d="M123.78,160.46c.13,1.6.59,3.17,1.44,4.59.64,1.05,1.48,1.92,2.42,2.58,1.54.16,3.09.24,4.64.26,0,.01,0,.03,0,.04.05,0,.1-.03.16-.03.05,0,.1,0,.15,0,.05,0,.1,0,.15,0,.06,0,.1.02.16.03,0-.01,0-.03,0-.04,1.55-.02,3.1-.1,4.64-.26.95-.66,1.78-1.52,2.42-2.58.85-1.43,1.3-2.99,1.44-4.59.12-1.53-.05-3.08-.41-4.58h-1.27c-1.77.58-3.4,1.91-4.82,4.04-1.08,1.63-1.89,3.56-2.31,5.58-.42-2.02-1.22-3.95-2.31-5.58-1.42-2.13-3.05-3.46-4.82-4.04h-1.27c-.36,1.5-.53,3.06-.41,4.58Z"/>
          <path d="M132.58,171.8s.1,0,.15,0h0c11.21-.07,22.47-3.64,31.72-10.1,2.59-1.79,5.02-3.81,7.27-6.01-.39.11-.8.18-1.22.18h-3.37c-1.4,1.2-2.85,2.34-4.37,3.39-8.81,6.14-19.52,9.53-30.17,9.56-10.66-.03-21.37-3.42-30.17-9.56-1.52-1.05-2.97-2.18-4.37-3.39h-2.04c-2.58,0-4.68-2.1-4.68-4.68v-2.22c-3.61-4.44-6.52-9.43-8.5-14.73-.92-2.51-1.67-5.12-2.23-7.75-.11-.54-.21-1.09-.3-1.64l-3.28-1.88c.18,1.42.4,2.8.67,4.13.59,2.78,1.38,5.53,2.35,8.18,3.95,10.55,11.29,19.94,20.68,26.43,9.26,6.46,20.51,10.03,31.72,10.09h0s.1,0,.15,0Z"/>
          <path d="M165.5,78.7c-3.29.54-5.96,2.68-7.87,5.35.81.8,1.88,1.27,3.04,1.62.59.16,1.24.25,1.95.28.7.03,1.4.03,2.18-.06,2.74-.34,5.52-1.38,7.8-3.14-1.12-1.34-2.31-2.63-3.57-3.85-1.12-.29-2.33-.36-3.54-.2Z"/>
          <path d="M192.12,109.85l2.03,1.17c1.49.85,2.42,2.45,2.42,4.17,0,.8-.21,1.58-.58,2.27.51-.38,1-.8,1.45-1.29,1.22-1.37,2.07-3.05,2.58-4.87.42-1.81.46-3.76.11-5.62-2.97.27-5.84,1.84-8.01,4.18Z"/>
          <path d="M161.93,158.69c.42-.86.7-1.81.81-2.82h-6.83c.16,1.91.65,3.83,1.52,5.58,1.55-.84,3.05-1.77,4.51-2.77Z"/>
          <path d="M145.81,157.89c-.89,2.56-1.15,5.55-.55,8.36,1.7-.44,3.39-.96,5.04-1.56.74-.87,1.33-1.91,1.69-3.08.58-1.88.52-3.84.05-5.73h-5.34c-.33.61-.63,1.28-.89,2.01Z"/>
          <path d="M176.23,133.09c-.33-.33-.68-.64-1.05-.92v10.6c.34.3.69.59,1.05.85v-10.53Z"/>
          <path d="M182.95,102.74c-.15-.57-.32-1.14-.49-1.71-.83-.79-1.83-1.43-2.98-1.85-1.49-.59-3.19-.7-4.79-.52-.53.06-1.05.17-1.57.29l10.33,5.92c-.16-.72-.32-1.44-.51-2.14Z"/>
          <path d="M164.85,91.28c.64.93,1.43,1.75,2.57,2.31,1.04.62,2.37,1.04,3.94,1.24,2.64.39,5.65.05,8.29-1.07-.76-1.59-1.6-3.14-2.51-4.65-.99-.56-2.12-.92-3.36-1.04-1.64-.16-3.24.1-4.74.68-1.53.59-2.94,1.48-4.19,2.53Z"/>
          <path d="M67.72,116.16c.31.34.64.64.98.92-.26-.59-.4-1.24-.4-1.9,0-1.72.92-3.31,2.41-4.17l2.23-1.28c-2.16-2.28-4.98-3.8-7.91-4.07-.34,1.86-.31,3.81.11,5.62.51,1.82,1.36,3.5,2.58,4.87Z"/>
          <path d="M155.66,170.2c-1.25-.5-2.49-.82-3.72-.97-1.8.66-3.64,1.22-5.49,1.7.83,2.75,2.65,5.22,5.64,6.61,3.37,1.58,7.49,1.21,10.8-.64-1.28-3.02-3.95-5.39-7.23-6.7Z"/>
          <path d="M187.11,99.67c.18.61.36,1.21.52,1.83.33,1.23.61,2.48.85,3.75,1.2-.29,2.36-.76,3.43-1.43.7-.45,1.38-.99,1.97-1.63.58-.63,1.09-1.36,1.52-2.18.87-1.64,1.34-3.51,1.28-5.37-.01-.94-.12-1.88-.32-2.82-.24-.91-.58-1.81-.99-2.67-1.55.55-2.95,1.47-4.15,2.64-1.21,1.18-2.14,2.58-2.94,4.2-.57,1.22-.96,2.45-1.18,3.67Z"/>
          <path d="M90.82,159.51c1.13-.54,2.14-1.28,3.02-2.15-1.4-1.3-2.73-2.66-3.99-4.08-1.16-.46-2.41-.78-3.76-.94-3.52-.39-6.97.39-9.55,2.46,2.01,3.23,5.5,5.47,9.2,5.7.93.06,1.82,0,2.66-.16.86-.18,1.66-.45,2.41-.81Z"/>
          <path d="M105.43,165.7c-1.68-.92-3.32-1.92-4.9-3-1.22-.16-2.5-.16-3.84.02-3.51.49-6.65,2.09-8.65,4.73,2.75,2.61,6.64,3.97,10.3,3.26,3.21-.59,5.6-2.55,7.08-5.01Z"/>
          <path d="M141.38,174.29c-1.08-.79-2.2-1.41-3.33-1.86-1.72.18-3.44.27-5.16.28,0,0,0-.01,0-.02-.04,0-.08.02-.11.02-.06,0-.13,0-.19,0-.06,0-.13,0-.19,0-.04,0-.08-.02-.11-.02,0,0,0,.01,0,.02-1.72-.02-3.44-.11-5.16-.28-1.14.45-2.25,1.07-3.33,1.86-1.43,1.02-2.63,2.29-3.56,3.7-.92,1.4-1.55,2.94-1.79,4.57,3.67.98,7.76.3,10.63-2.06,1.89-1.55,3.01-3.52,3.51-5.61.5,2.09,1.62,4.06,3.51,5.61,2.87,2.36,6.96,3.03,10.63,2.06-.24-1.63-.87-3.18-1.79-4.57-.92-1.42-2.13-2.68-3.56-3.7Z"/>
          <path d="M187.42,139.42v8.43c.57-.08,1.15-.2,1.73-.39,3.53-1.15,6.35-4.21,7.51-7.85-2.82-1.26-6.13-1.24-9.24-.19Z"/>
          <path d="M191.05,125.37c-1.09.79-2.02,1.67-2.81,2.62-.25,1.12-.54,2.23-.86,3.33,0,.11.03.21.03.32v2.07c.97.21,1.98.31,2.99.25,1.65-.1,3.32-.61,4.91-1.62,3.11-2.02,5.06-5.71,5.26-9.53-3.23-.53-6.7.47-9.53,2.55Z"/>
          <path d="M187.42,156.39c.44-.5.85-1.03,1.21-1.6-.38-.31-.79-.57-1.21-.82v2.42Z"/>
          <path d="M176.23,166.43c-1.98-2.03-4.73-3.28-7.76-3.7-1.33-.18-2.62-.18-3.84-.02-1.58,1.08-3.21,2.09-4.9,3,1.49,2.46,3.87,4.41,7.08,5.01,3.29.64,6.75-.4,9.41-2.51v-1.78Z"/>
          <path d="M113.23,169.23c-1.22.15-2.47.47-3.72.97-3.27,1.31-5.95,3.67-7.23,6.7,3.31,1.85,7.43,2.22,10.8.64,2.98-1.39,4.8-3.85,5.64-6.61-1.86-.48-3.69-1.04-5.49-1.7Z"/>
          <path d="M84.65,146.43c-1.05-1.62-2.02-3.28-2.9-4.98-1-.71-2.12-1.32-3.36-1.81-3.29-1.27-6.87-1.37-9.87-.03,1.16,3.64,3.99,6.7,7.51,7.85,3.11,1.02,6.14.43,8.63-1.03Z"/>
          <path d="M78.44,101.74c-.48,1.79-.86,3.63-1.15,5.51l3.37-1.94c.19-.95.41-1.89.65-2.81,2.71-10.28,8.58-19.64,16.57-26.45.88.02,1.75-.03,2.57-.18,1.44-.32,2.88-.76,4.1-1.64,1.26-.84,2.29-1.88,3.09-3.17.83-1.22,1.44-2.67,1.81-4.27-1.43-.68-3.04-1.01-4.69-.96-1.61.13-3.28.62-4.74,1.6-1.43,1.02-2.61,2.26-3.29,3.77-.4.84-.67,1.72-.82,2.62-8.43,7.19-14.63,17.08-17.48,27.92Z"/>
          <path d="M160.61,74.23c1.23.88,2.67,1.33,4.1,1.64.82.15,1.69.2,2.57.18,7.98,6.81,13.86,16.17,16.57,26.45.26.99.49,1.99.69,3l3.37,1.93c-.3-1.94-.69-3.84-1.18-5.69-2.86-10.84-9.06-20.73-17.48-27.92-.15-.9-.41-1.78-.82-2.62-.67-1.52-1.85-2.76-3.29-3.77-1.46-.98-3.13-1.47-4.74-1.6-1.65-.05-3.26.28-4.69.96.37,1.6.98,3.05,1.81,4.27.79,1.3,1.83,2.34,3.09,3.17Z"/>
          <path d="M184.02,91.67c2.54-1.35,4.59-3.6,5.4-6.82.41-1.79.33-3.68-.11-5.52-.54-1.77-1.4-3.53-2.65-4.96-1.36.92-2.49,2.16-3.34,3.59-.88,1.45-1.51,3.09-1.82,4.83-.23,1.32-.3,2.6-.21,3.84.99,1.64,1.91,3.32,2.73,5.05Z"/>
          <path d="M172.37,75.4c1.38,1.34,2.69,2.76,3.93,4.24,2.12-1.95,3.57-4.67,3.5-7.92-.02-.93-.13-1.87-.39-2.76-.26-.88-.63-1.74-1.09-2.56-.88-1.68-2.25-3.04-3.78-4.16-2.17,2.47-3.16,5.93-2.89,9.41.07,1.35.32,2.59.72,3.74Z"/>
          <path d="M92.79,75.4c.39-1.15.65-2.39.72-3.74.27-3.48-.72-6.95-2.89-9.41-1.53,1.12-2.9,2.49-3.78,4.16-.46.82-.82,1.68-1.09,2.56-.26.88-.37,1.83-.39,2.76-.08,3.25,1.38,5.97,3.5,7.92,1.24-1.48,2.55-2.9,3.93-4.24Z"/>
          <path d="M71.29,102.19c.59.63,1.27,1.18,1.97,1.63,1.06.68,2.23,1.15,3.43,1.43.24-1.27.52-2.52.85-3.75.16-.61.34-1.22.52-1.83-.22-1.22-.61-2.44-1.18-3.67-.8-1.62-1.73-3.02-2.94-4.2-1.2-1.17-2.6-2.09-4.15-2.64-.41.86-.75,1.75-.99,2.67-.2.93-.3,1.88-.32,2.82-.06,1.86.41,3.73,1.28,5.37.43.82.95,1.55,1.52,2.18Z"/>
          <path d="M74.76,133.97c1.26.07,2.5-.09,3.69-.42-.6-1.82-1.1-3.69-1.52-5.56-.79-.95-1.72-1.83-2.81-2.62-2.83-2.07-6.3-3.08-9.53-2.55.2,3.82,2.15,7.51,5.26,9.53,1.59,1.01,3.26,1.52,4.91,1.62Z"/>
          <path d="M81.14,91.67c.82-1.73,1.74-3.42,2.73-5.05.09-1.23.02-2.52-.21-3.84-.31-1.73-.94-3.38-1.82-4.83-.85-1.42-1.98-2.66-3.34-3.59-1.25,1.43-2.11,3.19-2.65,4.96-.44,1.84-.52,3.73-.11,5.52.82,3.22,2.86,5.47,5.4,6.82Z"/>
        </g>
        <path d="M192.91,116.93l-18.39,10.55v-.29c0-1.39-.76-2.66-1.98-3.31l-38.16-20.41c-.54-.29-1.15-.44-1.77-.44s-1.28.17-1.84.48l-36.34,20.39c-1.18.66-1.91,1.92-1.91,3.27v1.39l-20.26-11.62c-1.35-.77-1.35-2.71,0-3.49l59.33-34.03c.62-.36,1.38-.36,2,0l59.33,34.03c1.35.77,1.35,2.71,0,3.49ZM131.56,105.13l-36.34,20.39c-.6.33-.96.96-.96,1.65v24.03c0,1.04.85,1.89,1.89,1.89h74.5c1.04,0,1.89-.85,1.89-1.89v-24.01c0-.7-.38-1.34-1-1.66l-38.16-20.41c-.57-.3-1.25-.3-1.81.02ZM184.77,128.85v-.93c0-.51-.42-.93-.93-.93h-3.73c-.51,0-.93.42-.93.93v.93c0,.51.42.93.93.93h3.73c.51,0,.93-.42.93-.93ZM184.77,170.78v-39.14c0-.51-.42-.93-.93-.93h-3.73c-.51,0-.93.42-.93.93v39.14c0,.51.42.93.93.93h3.73c.51,0,.93-.42.93-.93ZM181.04,125.82c0,.13.1.23.23.23h1.41c.13,0,.23-.1.23-.23v-2.08l-1.86,1.07v1.02Z"/>
      </g>
      <text class="cls-3" transform="translate(84.18 218.05)"><tspan x="0" y="0" xml:space="preserve"> - HONORS - </tspan></text>
    </g>
  </g>
</svg>