<?xml version="1.0" encoding="UTF-8"?>
<svg id="_图层_2" data-name="图层_2" xmlns="http://www.w3.org/2000/svg" xmlns:xlink="http://www.w3.org/1999/xlink" viewBox="0 0 264.77 235.12">
  <defs>
    <style>
      .cls-1 {
        stroke: #fff;
        stroke-miterlimit: 10;
        stroke-width: 1px;
      }

      .cls-1, .cls-2, .cls-3 {
        fill: #fff;
      }

      .cls-4 {
        letter-spacing: -.04em;
      }

      .cls-5 {
        fill: url(#_未命名的渐变_412);
      }

      .cls-3 {
        font-family: Now-Black, Now;
        font-size: 14.01px;
        font-weight: 800;
      }
    </style>
    <linearGradient id="_未命名的渐变_412" data-name="未命名的渐变 412" x1="132.5" y1="40.02" x2="132.5" y2="195.98" gradientUnits="userSpaceOnUse">
      <stop offset=".06" stop-color="#66f"/>
      <stop offset="1" stop-color="#f6f"/>
    </linearGradient>
  </defs>
  <g id="_图层_4" data-name="图层_4">
    <g>
      <g>
        <path class="cls-5" d="M95.24,40.02h74.53c4.74,0,9.12,2.53,11.49,6.64l37.29,64.72c2.36,4.1,2.36,9.14,0,13.24l-37.29,64.72c-2.37,4.11-6.75,6.64-11.49,6.64h-74.53c-4.74,0-9.12-2.53-11.49-6.64l-37.29-64.72c-2.36-4.1-2.36-9.14,0-13.24l37.29-64.72c2.37-4.11,6.75-6.64,11.49-6.64Z"/>
        <path d="M188.56,0h-112.36c-7.15,0-13.75,3.82-17.32,10.01L2.67,107.58c-3.56,6.18-3.56,13.78,0,19.96l56.22,97.57c3.57,6.19,10.17,10.01,17.32,10.01h112.36c7.15,0,13.75-3.82,17.32-10.01l56.22-97.57c3.56-6.18,3.56-13.78,0-19.96L205.89,10.01c-3.57-6.19-10.17-10.01-17.32-10.01ZM95.12,40.08h74.53c4.74,0,9.12,2.53,11.49,6.64l37.29,64.72c2.36,4.1,2.36,9.14,0,13.24l-37.29,64.72c-2.37,4.11-6.75,6.64-11.49,6.64h-74.53c-4.74,0-9.12-2.53-11.49-6.64l-37.29-64.72c-2.36-4.1-2.36-9.14,0-13.24l37.29-64.72c2.37-4.11,6.75-6.64,11.49-6.64Z"/>
        <g>
          <path class="cls-2" d="M38.8,106.79c9.76-16.95,28.12-48.8,37.89-65.77.45-.78.45-1.73,0-2.51-1.84-3.23-6.82-11.94-9.7-16.99-.96-1.68-3.37-1.69-4.35-.02-12.97,22.16-34.87,60.53-47.73,82.77-.97,1.68.23,3.78,2.17,3.78,5.82,0,15.82,0,19.53,0,.9,0,1.72-.48,2.17-1.26Z"/>
          <path class="cls-1" d="M92.92,29.95c.45.78,1.27,1.26,2.17,1.26h74.58c.9,0,1.72-.48,2.17-1.26l9.84-17.23c.95-1.67-.25-3.75-2.17-3.75h-94.26c-1.92,0-3.12,2.08-2.17,3.75l9.84,17.23Z"/>
          <path class="cls-2" d="M197.79,21.5l-9.71,17.01c-.44.78-.44,1.74,0,2.51l37.89,65.77c.45.78,1.28,1.26,2.18,1.26h19.53c1.94,0,3.15-2.1,2.18-3.78-8.48-14.71-39.22-68.05-47.72-82.79-.97-1.68-3.4-1.67-4.36.01Z"/>
          <path class="cls-2" d="M66.96,213.67l9.46-16.57c.44-.77.44-1.71,0-2.48l-19.09-33.13-19.11-33.18c-.44-.77-1.26-1.24-2.15-1.24h-19.03c-1.91,0-3.11,2.07-2.15,3.73l23.66,41.06s17.83,30.93,24.12,41.83c.96,1.66,3.35,1.65,4.3-.01Z"/>
          <path class="cls-2" d="M226.55,128.33c-9.85,17.1-28.34,49.18-38.18,66.27-.45.78-.45,1.73,0,2.51,1.81,3.16,6.6,11.56,9.43,16.51.97,1.69,3.39,1.7,4.36,0,12.87-22.3,34.91-60.55,47.71-82.78.97-1.68-.24-3.78-2.18-3.78-5.68,0-15.31,0-18.96,0-.9,0-1.73.48-2.18,1.26Z"/>
        </g>
      </g>
      <text class="cls-3" transform="translate(93.89 217.16)"><tspan x="0" y="0">- </tspan><tspan class="cls-4" x="11.61" y="0">P</tspan><tspan x="19.89" y="0">ASSED -</tspan></text>
      <g>
        <g>
          <path d="M115.9,85.51c-.89,5.64-1.78,11.28-2.67,16.92,5.63.87,11.07,2.92,16.45,5.38l2.67-16.92c-5.38-2.45-10.82-4.51-16.45-5.38Z"/>
          <path d="M148.43,98.65c-.89,5.64-1.78,11.28-2.67,16.92,5.38,2.45,10.82,4.51,16.45,5.38.89-5.64,1.78-11.28,2.67-16.92-5.63-.87-11.07-2.92-16.45-5.38Z"/>
          <path d="M185.35,84.01c-30.67,11.56-53.49-26.53-84.16-14.97-.79.3-1.54,1.17-1.65,1.9-2.67,16.92-5.35,33.83-8.02,50.75-.12.73.44,1.04,1.23.74,30.67-11.56,53.49,26.53,84.16,14.97.79-.3,1.54-1.17,1.65-1.9,2.67-16.92,5.35-33.83,8.02-50.75.12-.73-.44-1.04-1.23-.74ZM162.21,120.94c-.82,5.2-1.64,10.4-2.46,15.59-5.63-.87-11.07-2.92-16.45-5.38.82-5.2,1.64-10.4,2.46-15.59-5.38-2.45-10.7-5.31-16.08-7.76-.82,5.2-1.64,10.4-2.46,15.59-5.38-2.45-10.82-4.51-16.45-5.38.82-5.2,1.64-10.4,2.46-15.59-5.19-.8-10.54-.58-16.15,1.27.89-5.64,1.78-11.28,2.67-16.92,5.61-1.85,10.96-2.06,16.15-1.27.82-5.2,1.64-10.4,2.46-15.59,5.63.87,11.07,2.92,16.45,5.38-.82,5.2-1.64,10.4-2.46,15.59,5.38,2.45,10.7,5.31,16.08,7.76l2.46-15.59c5.38,2.45,10.82,4.51,16.45,5.38-.82,5.2-1.64,10.4-2.46,15.59,5.19.8,10.54.58,16.15-1.27-.89,5.64-1.78,11.28-2.67,16.92-5.61,1.85-10.96,2.06-16.15,1.27Z"/>
        </g>
        <rect x="85.85" y="68.11" width="4.27" height="100.61" rx="1.07" ry="1.07" transform="translate(19.65 -12.33) rotate(9.02)"/>
      </g>
    </g>
  </g>
</svg>