<?xml version="1.0" encoding="UTF-8"?>
<svg id="_图层_2" data-name="图层_2" xmlns="http://www.w3.org/2000/svg" viewBox="0 0 358.49 358.49">
  <defs>
    <style>
      .cls-1 {
        fill: #fff;
      }
    </style>
  </defs>
  <g id="_图层_2-2" data-name="图层_2">
    <path class="cls-1" d="M316.01,0H42.49C19.02,0,0,19.02,0,42.49v273.52c0,23.46,19.02,42.49,42.49,42.49h38.54c6.76,0,12.24-5.48,12.24-12.24v-28.63c0-6.7,5.43-12.14,12.14-12.14h12.75c6.7,0,12.14,5.43,12.14,12.14v28.63c0,6.76,5.48,12.24,12.24,12.24h73.44c6.76,0,12.24-5.48,12.24-12.24v-28.63c0-6.7,5.43-12.14,12.14-12.14h12.75c6.7,0,12.14,5.43,12.14,12.14v28.63c0,6.76,5.48,12.24,12.24,12.24h38.54c23.46,0,42.49-19.02,42.49-42.49V42.49c0-23.46-19.02-42.49-42.49-42.49ZM130.69,184.71c0,6.7-5.43,12.14-12.14,12.14h-12.95c-6.7,0-12.14-5.43-12.14-12.14v-36.01c0-6.7,5.43-12.14,12.14-12.14h12.95c6.7,0,12.14,5.43,12.14,12.14v36.01ZM265.03,184.71c0,6.7-5.43,12.14-12.14,12.14h-12.95c-6.7,0-12.14-5.43-12.14-12.14v-36.01c0-6.7,5.43-12.14,12.14-12.14h12.95c6.7,0,12.14,5.43,12.14,12.14v36.01Z"/>
  </g>
</svg>