<?xml version="1.0" encoding="UTF-8"?>
<svg id="_图层_2" data-name="图层_2" xmlns="http://www.w3.org/2000/svg" viewBox="0 0 200.77 200.77">
  <defs>
    <style>
      .cls-1 {
        fill: #121231;
        stroke: #55bd82;
        stroke-miterlimit: 10;
        stroke-width: 5.45px;
      }
    </style>
  </defs>
  <g id="_图层_2-2" data-name="图层_2">
    <path class="cls-1" d="M174.9,2.72H25.87C13.09,2.72,2.72,13.09,2.72,25.87v149.03c0,12.78,10.36,23.15,23.15,23.15h21c3.68,0,6.67-2.99,6.67-6.67v-15.6c0-3.65,2.96-6.61,6.61-6.61h6.94c3.65,0,6.61,2.96,6.61,6.61v15.6c0,3.68,2.99,6.67,6.67,6.67h40.01c3.68,0,6.67-2.99,6.67-6.67v-15.6c0-3.65,2.96-6.61,6.61-6.61h6.94c3.65,0,6.61,2.96,6.61,6.61v15.6c0,3.68,2.99,6.67,6.67,6.67h21c12.78,0,23.15-10.36,23.15-23.15V25.87c0-12.78-10.36-23.15-23.15-23.15ZM73.93,103.36c0,3.65-2.96,6.61-6.61,6.61h-7.05c-3.65,0-6.61-2.96-6.61-6.61v-19.62c0-3.65,2.96-6.61,6.61-6.61h7.05c3.65,0,6.61,2.96,6.61,6.61v19.62ZM147.12,103.36c0,3.65-2.96,6.61-6.61,6.61h-7.05c-3.65,0-6.61-2.96-6.61-6.61v-19.62c0-3.65,2.96-6.61,6.61-6.61h7.05c3.65,0,6.61,2.96,6.61,6.61v19.62Z"/>
  </g>
</svg>