<?xml version="1.0" encoding="UTF-8" standalone="no"?>
<!DOCTYPE svg PUBLIC "-//W3C//DTD SVG 1.1//EN" "http://www.w3.org/Graphics/SVG/1.1/DTD/svg11.dtd">
<svg width="100%" height="100%" viewBox="0 0 266 235" version="1.1" xmlns="http://www.w3.org/2000/svg" xmlns:xlink="http://www.w3.org/1999/xlink" xml:space="preserve" xmlns:serif="http://www.serif.com/" style="fill-rule:evenodd;clip-rule:evenodd;stroke-linejoin:round;stroke-miterlimit:2;">
    <g id="_图层_1-2_" serif:id="_图层_1-2">
        <g>
            <g>
                <path d="M95.36,40L170.04,40C174.78,40 179.16,42.53 181.53,46.63L218.87,111.31C221.24,115.41 221.24,120.47 218.87,124.58L181.53,189.26C179.16,193.36 174.78,195.89 170.04,195.89L95.36,195.89C90.62,195.89 86.24,193.36 83.87,189.26L46.53,124.58C44.16,120.48 44.16,115.42 46.53,111.31L83.87,46.63C86.24,42.53 90.62,40 95.36,40Z" style="fill:url(#_Linear1);fill-rule:nonzero;"/>
                <path d="M206.2,10C202.63,3.81 196.02,0 188.88,0L76.3,0C69.15,0 62.55,3.81 58.98,10L2.68,107.5C-0.89,113.69 -0.89,121.31 2.68,127.5L58.97,225C62.54,231.19 69.15,235 76.29,235L188.87,235C196.02,235 202.62,231.19 206.19,225L262.48,127.5C266.05,121.31 266.05,113.69 262.48,107.5L206.2,10ZM95.24,40.06L169.92,40.06C174.66,40.06 179.04,42.59 181.41,46.69L218.75,111.37C221.12,115.47 221.12,120.53 218.75,124.64L181.41,189.32C179.04,193.42 174.66,195.95 169.92,195.95L95.24,195.95C90.5,195.95 86.12,193.42 83.75,189.32L46.41,124.64C44.04,120.54 44.04,115.48 46.41,111.37L83.75,46.69C86.12,42.59 90.5,40.06 95.24,40.06Z" style="fill-rule:nonzero;"/>
                <g>
                    <path d="M38.85,106.74C48.63,89.8 67.01,57.96 76.8,41C77.25,40.22 77.25,39.27 76.8,38.49C74.95,35.26 69.97,26.56 67.08,21.51C66.12,19.83 63.71,19.82 62.73,21.49C49.74,43.64 27.8,81.99 14.92,104.22C13.95,105.9 15.15,108 17.1,108L36.67,108C37.57,108 38.4,107.52 38.85,106.74Z" style="fill:rgb(71,71,71);fill-rule:nonzero;"/>
                    <path d="M93.06,29.93C93.51,30.71 94.34,31.19 95.23,31.19L169.93,31.19C170.83,31.19 171.66,30.71 172.1,29.93L181.95,12.71C182.9,11.04 181.7,8.96 179.78,8.96L85.37,8.96C83.45,8.96 82.24,11.04 83.2,12.71L93.05,29.93L93.06,29.93Z" style="fill:rgb(71,71,71);fill-rule:nonzero;"/>
                    <path d="M198.09,21.49L188.36,38.49C187.91,39.27 187.92,40.22 188.36,41L226.31,106.74C226.76,107.52 227.59,108 228.49,108L248.05,108C249.99,108 251.2,105.9 250.23,104.22C241.74,89.52 210.95,36.2 202.44,21.48C201.47,19.8 199.04,19.81 198.07,21.49L198.09,21.49Z" style="fill:rgb(71,71,71);fill-rule:nonzero;"/>
                    <path d="M67.05,213.56L76.53,196.99C76.97,196.22 76.97,195.28 76.53,194.51L57.41,161.4L38.27,128.24C37.83,127.47 37,127 36.12,127L17.06,127C15.14,127 13.95,129.07 14.91,130.73L38.6,171.77C38.6,171.77 56.46,202.69 62.75,213.57C63.71,215.23 66.11,215.22 67.06,213.56L67.05,213.56Z" style="fill:white;fill-rule:nonzero;"/>
                    <path d="M226.89,128.26C217.03,145.35 198.51,177.41 188.65,194.49C188.2,195.27 188.2,196.22 188.65,197C190.46,200.16 195.26,208.55 198.09,213.5C199.06,215.19 201.48,215.19 202.46,213.5C215.35,191.21 237.43,152.98 250.25,130.76C251.22,129.08 250.01,126.98 248.07,126.98L229.08,126.98C228.18,126.98 227.35,127.46 226.9,128.24L226.89,128.26Z" style="fill:rgb(71,71,71);fill-rule:nonzero;"/>
                </g>
            </g>
            <g>
                <g>
                    <path d="M86.29,130.32C86.82,129.96 87.32,129.56 87.79,129.14L82.07,125.86C81.91,126.21 81.76,126.57 81.65,126.94C82.04,128.65 82.5,130.35 83.04,132.02C84.19,131.59 85.29,131 86.29,130.31L86.29,130.32Z" style="fill-rule:nonzero;"/>
                    <path d="M91.32,141.43L91.32,131.29C89.47,132.38 87.89,133.87 86.93,135.83C86.38,136.94 86.1,138.11 86.06,139.25C86.86,140.81 87.75,142.33 88.71,143.8C89.68,143.12 90.55,142.31 91.32,141.42L91.32,141.43Z" style="fill-rule:nonzero;"/>
                    <path d="M107.74,161.46C108.61,159.71 109.1,157.78 109.26,155.88L102.43,155.88C102.55,156.88 102.82,157.84 103.24,158.7C104.69,159.7 106.2,160.62 107.75,161.47L107.74,161.46Z" style="fill-rule:nonzero;"/>
                    <path d="M113.18,161.6C113.54,162.77 114.12,163.81 114.87,164.68C116.52,165.29 118.21,165.81 119.91,166.24C120.5,163.43 120.25,160.44 119.36,157.88C119.1,157.14 118.8,156.47 118.47,155.87L113.13,155.87C112.66,157.76 112.61,159.71 113.18,161.6Z" style="fill-rule:nonzero;"/>
                    <path d="M88.02,89.1C87.11,90.61 86.27,92.16 85.51,93.75C88.15,94.87 91.16,95.22 93.8,94.82C95.37,94.62 96.71,94.21 97.74,93.58C98.88,93.02 99.67,92.2 100.31,91.27C99.05,90.22 97.64,89.33 96.12,88.74C94.62,88.17 93.02,87.91 91.38,88.06C90.15,88.17 89.02,88.54 88.02,89.1Z" style="fill-rule:nonzero;"/>
                    <path d="M99.67,78.7C98.46,78.54 97.26,78.61 96.13,78.9C94.88,80.12 93.69,81.41 92.56,82.75C94.83,84.5 97.62,85.55 100.36,85.89C101.14,85.98 101.85,85.98 102.54,85.95C103.24,85.93 103.89,85.83 104.49,85.67C105.65,85.31 106.72,84.85 107.53,84.05C105.63,81.38 102.95,79.24 99.66,78.7L99.67,78.7Z" style="fill-rule:nonzero;"/>
                    <path d="M176.23,160.18L176.23,152.95C175.92,153.05 175.61,153.16 175.31,153.28C174.05,154.7 172.72,156.07 171.32,157.36C172.2,158.23 173.21,158.97 174.34,159.51C174.93,159.79 175.57,160.01 176.22,160.18L176.23,160.18Z" style="fill-rule:nonzero;"/>
                    <path d="M82.21,102.74C82.04,103.38 81.88,104.04 81.74,104.69L91.83,98.91C91.38,98.81 90.93,98.72 90.47,98.67C88.87,98.49 87.17,98.6 85.68,99.19C84.53,99.61 83.53,100.25 82.7,101.04C82.53,101.61 82.36,102.18 82.21,102.75L82.21,102.74Z" style="fill-rule:nonzero;"/>
                    <path d="M188.18,122.78L185.55,124.29L185.55,124.69C186.56,125.27 187.26,126.32 187.39,127.53C187.42,127.38 187.46,127.24 187.49,127.09C187.77,125.71 188,124.26 188.18,122.78Z" style="fill-rule:nonzero;"/>
                    <path d="M176.23,145.81C175.89,146.3 175.54,146.78 175.18,147.26L175.18,151.19C175.18,151.51 175.15,151.82 175.09,152.11C175.48,151.66 175.86,151.2 176.23,150.74L176.23,145.8L176.23,145.81Z" style="fill-rule:nonzero;"/>
                    <path d="M123.78,160.46C123.91,162.06 124.37,163.63 125.22,165.05C125.86,166.1 126.7,166.97 127.64,167.63C129.18,167.79 130.73,167.87 132.28,167.89L132.28,167.93C132.33,167.93 132.38,167.9 132.44,167.9L132.74,167.9C132.8,167.9 132.84,167.92 132.9,167.93L132.9,167.89C134.45,167.87 136,167.79 137.54,167.63C138.49,166.97 139.32,166.11 139.96,165.05C140.81,163.62 141.26,162.06 141.4,160.46C141.52,158.93 141.35,157.38 140.99,155.88L139.72,155.88C137.95,156.46 136.32,157.79 134.9,159.92C133.82,161.55 133.01,163.48 132.59,165.5C132.17,163.48 131.37,161.55 130.28,159.92C128.86,157.79 127.23,156.46 125.46,155.88L124.19,155.88C123.83,157.38 123.66,158.94 123.78,160.46Z" style="fill-rule:nonzero;"/>
                    <path d="M132.58,171.8L132.73,171.8C143.94,171.73 155.2,168.16 164.45,161.7C167.04,159.91 169.47,157.89 171.72,155.69C171.33,155.8 170.92,155.87 170.5,155.87L167.13,155.87C165.73,157.07 164.28,158.21 162.76,159.26C153.95,165.4 143.24,168.79 132.59,168.82C121.93,168.79 111.22,165.4 102.42,159.26C100.9,158.21 99.45,157.08 98.05,155.87L96.01,155.87C93.43,155.87 91.33,153.77 91.33,151.19L91.33,148.97C87.72,144.53 84.81,139.54 82.83,134.24C81.91,131.73 81.16,129.12 80.6,126.49C80.49,125.95 80.39,125.4 80.3,124.85L77.02,122.97C77.2,124.39 77.42,125.77 77.69,127.1C78.28,129.88 79.07,132.63 80.04,135.28C83.99,145.83 91.33,155.22 100.72,161.71C109.98,168.17 121.23,171.74 132.44,171.8C143.65,171.86 132.54,171.8 132.59,171.8L132.58,171.8Z" style="fill-rule:nonzero;"/>
                    <path d="M165.5,78.7C162.21,79.24 159.54,81.38 157.63,84.05C158.44,84.85 159.51,85.32 160.67,85.67C161.26,85.83 161.91,85.92 162.62,85.95C163.32,85.98 164.02,85.98 164.8,85.89C167.54,85.55 170.32,84.51 172.6,82.75C171.48,81.41 170.29,80.12 169.03,78.9C167.91,78.61 166.7,78.54 165.49,78.7L165.5,78.7Z" style="fill-rule:nonzero;"/>
                    <path d="M192.12,109.85L194.15,111.02C195.64,111.87 196.57,113.47 196.57,115.19C196.57,115.99 196.36,116.77 195.99,117.46C196.5,117.08 196.99,116.66 197.44,116.17C198.66,114.8 199.51,113.12 200.02,111.3C200.44,109.49 200.48,107.54 200.13,105.68C197.16,105.95 194.29,107.52 192.12,109.86L192.12,109.85Z" style="fill-rule:nonzero;"/>
                    <path d="M161.93,158.69C162.35,157.83 162.63,156.88 162.74,155.87L155.91,155.87C156.07,157.78 156.56,159.7 157.43,161.45C158.98,160.61 160.48,159.68 161.94,158.68L161.93,158.69Z" style="fill-rule:nonzero;"/>
                    <path d="M145.81,157.89C144.92,160.45 144.66,163.44 145.26,166.25C146.96,165.81 148.65,165.29 150.3,164.69C151.04,163.82 151.63,162.78 151.99,161.61C152.57,159.73 152.51,157.77 152.04,155.88L146.7,155.88C146.37,156.49 146.07,157.16 145.81,157.89Z" style="fill-rule:nonzero;"/>
                    <path d="M176.23,133.09C175.9,132.76 175.55,132.45 175.18,132.17L175.18,142.77C175.52,143.07 175.87,143.36 176.23,143.62L176.23,133.09Z" style="fill-rule:nonzero;"/>
                    <path d="M182.95,102.74C182.8,102.17 182.63,101.6 182.46,101.03C181.63,100.24 180.63,99.6 179.48,99.18C177.99,98.59 176.29,98.48 174.69,98.66C174.16,98.72 173.64,98.83 173.12,98.95L183.45,104.87C183.29,104.15 183.13,103.43 182.94,102.73L182.95,102.74Z" style="fill-rule:nonzero;"/>
                    <path d="M164.85,91.28C165.49,92.21 166.28,93.03 167.42,93.59C168.46,94.21 169.79,94.63 171.36,94.83C174,95.22 177.01,94.88 179.65,93.76C178.89,92.17 178.05,90.62 177.14,89.11C176.15,88.55 175.02,88.19 173.78,88.07C172.14,87.91 170.54,88.17 169.04,88.75C167.51,89.34 166.1,90.23 164.85,91.28Z" style="fill-rule:nonzero;"/>
                    <path d="M67.72,116.16C68.03,116.5 68.36,116.8 68.7,117.08C68.44,116.49 68.3,115.84 68.3,115.18C68.3,113.46 69.22,111.87 70.71,111.01L72.94,109.73C70.78,107.45 67.96,105.93 65.03,105.66C64.69,107.52 64.72,109.47 65.14,111.28C65.65,113.1 66.5,114.78 67.72,116.15L67.72,116.16Z" style="fill-rule:nonzero;"/>
                    <path d="M155.66,170.2C154.41,169.7 153.17,169.38 151.94,169.23C150.14,169.89 148.3,170.45 146.45,170.93C147.28,173.68 149.1,176.15 152.09,177.54C155.46,179.12 159.58,178.75 162.89,176.9C161.61,173.88 158.94,171.51 155.66,170.2Z" style="fill-rule:nonzero;"/>
                    <path d="M187.11,99.67C187.29,100.28 187.47,100.88 187.63,101.5C187.96,102.73 188.24,103.98 188.48,105.25C189.68,104.96 190.84,104.49 191.91,103.82C192.61,103.37 193.29,102.83 193.88,102.19C194.46,101.56 194.97,100.83 195.4,100.01C196.27,98.37 196.74,96.5 196.68,94.64C196.67,93.7 196.56,92.76 196.36,91.82C196.12,90.91 195.78,90.01 195.37,89.15C193.82,89.7 192.42,90.62 191.22,91.79C190.01,92.97 189.08,94.37 188.28,95.99C187.71,97.21 187.32,98.44 187.1,99.66L187.11,99.67Z" style="fill-rule:nonzero;"/>
                    <path d="M90.82,159.51C91.95,158.97 92.96,158.23 93.84,157.36C92.44,156.06 91.11,154.7 89.85,153.28C88.69,152.82 87.44,152.5 86.09,152.34C82.57,151.95 79.12,152.73 76.54,154.8C78.55,158.03 82.04,160.27 85.74,160.5C86.67,160.56 87.56,160.5 88.4,160.34C89.26,160.16 90.06,159.89 90.81,159.53L90.82,159.51Z" style="fill-rule:nonzero;"/>
                    <path d="M105.43,165.7C103.75,164.78 102.11,163.78 100.53,162.7C99.31,162.54 98.03,162.54 96.69,162.72C93.18,163.21 90.04,164.81 88.04,167.45C90.79,170.06 94.68,171.42 98.34,170.71C101.55,170.12 103.94,168.16 105.42,165.7L105.43,165.7Z" style="fill-rule:nonzero;"/>
                    <path d="M141.38,174.29C140.3,173.5 139.18,172.88 138.05,172.43C136.33,172.61 134.61,172.7 132.89,172.71L132.89,172.69C132.85,172.69 132.81,172.71 132.78,172.71L132.4,172.71C132.36,172.71 132.32,172.69 132.29,172.69L132.29,172.71C130.57,172.69 128.85,172.6 127.13,172.43C125.99,172.88 124.88,173.5 123.8,174.29C122.37,175.31 121.17,176.58 120.24,177.99C119.32,179.39 118.69,180.93 118.45,182.56C122.12,183.54 126.21,182.86 129.08,180.5C130.97,178.95 132.09,176.98 132.59,174.89C133.09,176.98 134.21,178.95 136.1,180.5C138.97,182.86 143.06,183.53 146.73,182.56C146.49,180.93 145.86,179.38 144.94,177.99C144.02,176.57 142.81,175.31 141.38,174.29Z" style="fill-rule:nonzero;"/>
                    <path d="M187.42,139.42L187.42,147.85C187.99,147.77 188.57,147.65 189.15,147.46C192.68,146.31 195.5,143.25 196.66,139.61C193.84,138.35 190.53,138.37 187.42,139.42Z" style="fill-rule:nonzero;"/>
                    <path d="M191.05,125.37C189.96,126.16 189.03,127.04 188.24,127.99C187.99,129.11 187.7,130.22 187.38,131.32C187.38,131.43 187.41,131.53 187.41,131.64L187.41,133.71C188.38,133.92 189.39,134.02 190.4,133.96C192.05,133.86 193.72,133.35 195.31,132.34C198.42,130.32 200.37,126.63 200.57,122.81C197.34,122.28 193.87,123.28 191.04,125.36L191.05,125.37Z" style="fill-rule:nonzero;"/>
                    <path d="M187.42,156.39C187.86,155.89 188.27,155.36 188.63,154.79C188.25,154.48 187.84,154.22 187.42,153.97L187.42,156.39Z" style="fill-rule:nonzero;"/>
                    <path d="M176.23,166.43C174.25,164.4 171.5,163.15 168.47,162.73C167.14,162.55 165.85,162.55 164.63,162.71C163.05,163.79 161.42,164.8 159.73,165.71C161.22,168.17 163.6,170.12 166.81,170.72C170.1,171.36 173.56,170.32 176.22,168.21L176.22,166.43L176.23,166.43Z" style="fill-rule:nonzero;"/>
                    <path d="M113.23,169.23C112.01,169.38 110.76,169.7 109.51,170.2C106.24,171.51 103.56,173.87 102.28,176.9C105.59,178.75 109.71,179.12 113.08,177.54C116.06,176.15 117.88,173.69 118.72,170.93C116.86,170.45 115.03,169.89 113.23,169.23Z" style="fill-rule:nonzero;"/>
                    <path d="M84.65,146.43C83.6,144.81 82.63,143.15 81.75,141.45C80.75,140.74 79.63,140.13 78.39,139.64C75.1,138.37 71.52,138.27 68.52,139.61C69.68,143.25 72.51,146.31 76.03,147.46C79.14,148.48 82.17,147.89 84.66,146.43L84.65,146.43Z" style="fill-rule:nonzero;"/>
                    <path d="M78.44,101.74C77.96,103.53 77.58,105.37 77.29,107.25L80.66,105.31C80.85,104.36 81.07,103.42 81.31,102.5C84.02,92.22 89.89,82.86 97.88,76.05C98.76,76.07 99.63,76.02 100.45,75.87C101.89,75.55 103.33,75.11 104.55,74.23C105.81,73.39 106.84,72.35 107.64,71.06C108.47,69.84 109.08,68.39 109.45,66.79C108.02,66.11 106.41,65.78 104.76,65.83C103.15,65.96 101.48,66.45 100.02,67.43C98.59,68.45 97.41,69.69 96.73,71.2C96.33,72.04 96.06,72.92 95.91,73.82C87.48,81.01 81.28,90.9 78.43,101.74L78.44,101.74Z" style="fill-rule:nonzero;"/>
                    <path d="M160.61,74.23C161.84,75.11 163.28,75.56 164.71,75.87C165.53,76.02 166.4,76.07 167.28,76.05C175.26,82.86 181.14,92.22 183.85,102.5C184.11,103.49 184.34,104.49 184.54,105.5L187.91,107.43C187.61,105.49 187.22,103.59 186.73,101.74C183.87,90.9 177.67,81.01 169.25,73.82C169.1,72.92 168.84,72.04 168.43,71.2C167.76,69.68 166.58,68.44 165.14,67.43C163.68,66.45 162.01,65.96 160.4,65.83C158.75,65.78 157.14,66.11 155.71,66.79C156.08,68.39 156.69,69.84 157.52,71.06C158.31,72.36 159.35,73.4 160.61,74.23Z" style="fill-rule:nonzero;"/>
                    <path d="M184.02,91.67C186.56,90.32 188.61,88.07 189.42,84.85C189.83,83.06 189.75,81.17 189.31,79.33C188.77,77.56 187.91,75.8 186.66,74.37C185.3,75.29 184.17,76.53 183.32,77.96C182.44,79.41 181.81,81.05 181.5,82.79C181.27,84.11 181.2,85.39 181.29,86.63C182.28,88.27 183.2,89.95 184.02,91.68L184.02,91.67Z" style="fill-rule:nonzero;"/>
                    <path d="M172.37,75.4C173.75,76.74 175.06,78.16 176.3,79.64C178.42,77.69 179.87,74.97 179.8,71.72C179.78,70.79 179.67,69.85 179.41,68.96C179.15,68.08 178.78,67.22 178.32,66.4C177.44,64.72 176.07,63.36 174.54,62.24C172.37,64.71 171.38,68.17 171.65,71.65C171.72,73 171.97,74.24 172.37,75.39L172.37,75.4Z" style="fill-rule:nonzero;"/>
                    <path d="M92.79,75.4C93.18,74.25 93.44,73.01 93.51,71.66C93.78,68.18 92.79,64.71 90.62,62.25C89.09,63.37 87.72,64.74 86.84,66.41C86.38,67.23 86.02,68.09 85.75,68.97C85.49,69.85 85.38,70.8 85.36,71.73C85.28,74.98 86.74,77.7 88.86,79.65C90.1,78.17 91.41,76.75 92.79,75.41L92.79,75.4Z" style="fill-rule:nonzero;"/>
                    <path d="M71.29,102.19C71.88,102.82 72.56,103.37 73.26,103.82C74.32,104.5 75.49,104.97 76.69,105.25C76.93,103.98 77.21,102.73 77.54,101.5C77.7,100.89 77.88,100.28 78.06,99.67C77.84,98.45 77.45,97.23 76.88,96C76.08,94.38 75.15,92.98 73.94,91.8C72.74,90.63 71.34,89.71 69.79,89.16C69.38,90.02 69.04,90.91 68.8,91.83C68.6,92.76 68.5,93.71 68.48,94.65C68.42,96.51 68.89,98.38 69.76,100.02C70.19,100.84 70.71,101.57 71.28,102.2L71.29,102.19Z" style="fill-rule:nonzero;"/>
                    <path d="M74.76,133.97C76.02,134.04 77.26,133.88 78.45,133.55C77.85,131.73 77.35,129.86 76.93,127.99C76.14,127.04 75.21,126.16 74.12,125.37C71.29,123.3 67.82,122.29 64.59,122.82C64.79,126.64 66.74,130.33 69.85,132.35C71.44,133.36 73.11,133.87 74.76,133.97Z" style="fill-rule:nonzero;"/>
                    <path d="M81.14,91.67C81.96,89.94 82.88,88.25 83.87,86.62C83.96,85.39 83.89,84.1 83.66,82.78C83.35,81.05 82.72,79.4 81.84,77.95C80.99,76.53 79.86,75.29 78.5,74.36C77.25,75.79 76.39,77.55 75.85,79.32C75.41,81.16 75.33,83.05 75.74,84.84C76.56,88.06 78.6,90.31 81.14,91.66L81.14,91.67Z" style="fill-rule:nonzero;"/>
                </g>
                <path d="M192.91,116.93L174.52,127.48L174.52,127.19C174.52,125.8 173.76,124.53 172.54,123.88L134.38,103.47C133.84,103.18 133.23,103.03 132.61,103.03C131.99,103.03 131.33,103.2 130.77,103.51L94.43,123.9C93.25,124.56 92.52,125.82 92.52,127.17L92.52,128.56L72.26,116.94C70.91,116.17 70.91,114.23 72.26,113.45L131.59,79.42C132.21,79.06 132.97,79.06 133.59,79.42L192.92,113.45C194.27,114.22 194.27,116.16 192.92,116.94L192.91,116.93ZM131.56,105.13L95.22,125.52C94.62,125.85 94.26,126.48 94.26,127.17L94.26,151.2C94.26,152.24 95.11,153.09 96.15,153.09L170.65,153.09C171.69,153.09 172.54,152.24 172.54,151.2L172.54,127.19C172.54,126.49 172.16,125.85 171.54,125.53L133.38,105.12C132.81,104.82 132.13,104.82 131.57,105.14L131.56,105.13ZM184.77,128.85L184.77,127.92C184.77,127.41 184.35,126.99 183.84,126.99L180.11,126.99C179.6,126.99 179.18,127.41 179.18,127.92L179.18,128.85C179.18,129.36 179.6,129.78 180.11,129.78L183.84,129.78C184.35,129.78 184.77,129.36 184.77,128.85ZM184.77,170.78L184.77,131.64C184.77,131.13 184.35,130.71 183.84,130.71L180.11,130.71C179.6,130.71 179.18,131.13 179.18,131.64L179.18,170.78C179.18,171.29 179.6,171.71 180.11,171.71L183.84,171.71C184.35,171.71 184.77,171.29 184.77,170.78ZM181.04,125.82C181.04,125.95 181.14,126.05 181.27,126.05L182.68,126.05C182.81,126.05 182.91,125.95 182.91,125.82L182.91,123.74L181.05,124.81L181.05,125.83L181.04,125.82Z" style="fill-rule:nonzero;"/>
            </g>
            <g transform="matrix(1,0,0,1,88.3888,220.05)">
                <g>
                    <rect x="1.242" y="-4.48" width="4.9" height="1.68" style="fill:white;fill-rule:nonzero;"/>
                    <path d="M19.022,-10.5L19.022,-6.422L15.242,-6.422L15.242,-10.5L12.565,-10.5L12.565,0L15.242,0L15.242,-4.095L19.022,-4.095L19.022,0L21.7,0L21.7,-10.5L19.022,-10.5Z" style="fill:white;fill-rule:nonzero;"/>
                    <path d="M28.665,0.14C31.64,0.14 34.055,-2.275 34.055,-5.25C34.055,-8.225 31.64,-10.64 28.665,-10.64C25.672,-10.64 23.275,-8.225 23.275,-5.25C23.275,-2.275 25.672,0.14 28.665,0.14ZM28.665,-2.485C27.072,-2.485 25.882,-3.657 25.882,-5.25C25.882,-6.842 27.072,-8.015 28.665,-8.015C30.24,-8.015 31.43,-6.842 31.43,-5.25C31.43,-3.657 30.24,-2.485 28.665,-2.485Z" style="fill:white;fill-rule:nonzero;"/>
                    <path d="M43.137,-10.5L43.137,-4.077L38.395,-10.5L35.595,-10.5L35.595,0L38.272,0L38.272,-6.44L42.997,0L45.815,0L45.815,-10.5L43.137,-10.5Z" style="fill:white;fill-rule:nonzero;"/>
                    <path d="M52.762,0.14C55.737,0.14 58.152,-2.275 58.152,-5.25C58.152,-8.225 55.737,-10.64 52.762,-10.64C49.77,-10.64 47.372,-8.225 47.372,-5.25C47.372,-2.275 49.77,0.14 52.762,0.14ZM52.762,-2.485C51.17,-2.485 49.98,-3.657 49.98,-5.25C49.98,-6.842 51.17,-8.015 52.762,-8.015C54.337,-8.015 55.527,-6.842 55.527,-5.25C55.527,-3.657 54.337,-2.485 52.762,-2.485Z" style="fill:white;fill-rule:nonzero;"/>
                    <path d="M65.537,-4.165C66.745,-4.585 67.585,-5.757 67.585,-7.192C67.585,-9.012 66.237,-10.5 64.365,-10.5L59.692,-10.5L59.692,0L62.37,0L62.37,-3.85L62.982,-3.85L65.432,0L68.442,0L65.537,-4.165ZM63.927,-6.002L62.37,-6.002L62.37,-8.172L63.927,-8.172C64.557,-8.172 65.012,-7.717 65.012,-7.087C65.012,-6.457 64.557,-6.002 63.927,-6.002Z" style="fill:white;fill-rule:nonzero;"/>
                    <path d="M72.677,0.14C74.69,0.14 76.422,-1.032 76.422,-3.045C76.422,-7.035 71.662,-6.037 71.662,-7.63C71.662,-8.085 72.012,-8.295 72.432,-8.295C72.957,-8.295 73.535,-7.98 74.095,-7.385L75.845,-9.082C75.022,-10.045 73.78,-10.64 72.467,-10.64C70.805,-10.64 68.967,-9.677 68.967,-7.437C68.967,-3.797 73.745,-4.672 73.745,-3.08C73.745,-2.66 73.395,-2.362 72.712,-2.362C71.802,-2.362 71.067,-2.852 70.7,-3.64L68.512,-2.275C69.212,-0.945 70.752,0.14 72.677,0.14Z" style="fill:white;fill-rule:nonzero;"/>
                    <rect x="82.25" y="-4.48" width="4.9" height="1.68" style="fill:white;fill-rule:nonzero;"/>
                </g>
            </g>
        </g>
    </g>
    <defs>
        <linearGradient id="_Linear1" x1="0" y1="0" x2="1" y2="0" gradientUnits="userSpaceOnUse" gradientTransform="matrix(9.5449e-15,-155.88,155.88,9.5449e-15,132.7,195.88)"><stop offset="0" style="stop-color:rgb(214,237,129);stop-opacity:1"/><stop offset="1" style="stop-color:rgb(0,145,233);stop-opacity:1"/></linearGradient>
    </defs>
</svg>
